<?xml version="1.0" standalone="no"?>
<!DOCTYPE svg PUBLIC "-//W3C//DTD SVG 20010904//EN"
 "http://www.w3.org/TR/2001/REC-SVG-20010904/DTD/svg10.dtd">
<svg version="1.0" xmlns="http://www.w3.org/2000/svg"
 width="1024.000000pt" height="1024.000000pt" viewBox="0 0 1024.000000 1024.000000"
 preserveAspectRatio="xMidYMid meet">

<g transform="translate(0.000000,1024.000000) scale(0.100000,-0.100000)"
fill="#000000" stroke="none">
<path d="M4925 8919 c-362 -52 -693 -298 -849 -630 -131 -278 -132 -640 -2
-915 41 -87 108 -194 140 -227 14 -13 -40 -15 -482 -20 -541 -5 -580 -9 -765
-71 -417 -140 -748 -493 -850 -906 -9 -36 -32 -157 -51 -270 -37 -214 -100
-587 -186 -1095 -28 -165 -80 -469 -115 -675 -249 -1454 -245 -1430 -245
-1561 0 -371 137 -698 405 -965 230 -229 491 -358 827 -409 84 -13 417 -15
2365 -15 2444 0 2360 -1 2557 52 612 163 1046 714 1046 1327 0 154 6 114 -240
1536 -61 352 -164 953 -230 1335 -66 382 -128 727 -139 765 -126 447 -488 793
-949 910 -142 36 -289 45 -754 45 l-407 0 55 77 c196 273 247 638 135 967
-129 380 -477 668 -896 740 -96 17 -271 19 -370 5z m334 -474 c78 -19 188 -73
255 -127 278 -220 314 -637 77 -891 -128 -137 -295 -210 -481 -210 -295 0
-541 188 -614 470 -18 70 -21 218 -5 295 6 29 29 91 51 136 74 156 229 279
408 326 72 19 229 19 309 1z m1730 -1819 c293 -61 529 -266 632 -547 30 -83
46 -167 189 -1049 23 -140 118 -714 211 -1275 184 -1098 194 -1176 166 -1321
-64 -340 -330 -611 -697 -713 l-95 -26 -2215 -3 c-2311 -3 -2319 -3 -2472 39
-258 72 -478 256 -589 493 -51 109 -70 191 -76 321 -5 118 -3 134 116 850 66
402 141 854 165 1005 125 775 259 1572 272 1625 24 93 96 233 161 310 144 171
351 285 553 303 41 4 871 6 1844 4 1457 -2 1781 -5 1835 -16z"/>
<path d="M5776 5071 c-223 -49 -415 -193 -502 -376 -67 -140 -69 -160 -69
-570 0 -417 2 -435 75 -580 96 -193 264 -329 479 -387 113 -31 335 -31 446 0
221 63 389 200 480 394 56 119 65 170 65 373 0 206 -8 234 -77 296 -67 60 -89
64 -368 64 -237 0 -252 -1 -290 -22 -86 -46 -135 -123 -135 -213 0 -92 55
-175 145 -216 42 -20 66 -24 148 -24 109 0 112 -2 77 -69 -48 -96 -155 -147
-289 -139 -134 8 -223 66 -275 177 -19 43 -21 65 -24 311 -4 293 3 352 49 425
71 111 219 161 358 119 41 -12 69 -31 130 -89 90 -87 130 -106 216 -107 133
-1 228 96 228 232 0 64 -25 119 -80 181 -77 85 -240 180 -368 214 -97 27 -311
29 -419 6z"/>
<path d="M3645 5056 c-46 -20 -94 -64 -118 -110 l-22 -41 -3 -770 c-2 -534 1
-784 8 -815 25 -100 101 -166 204 -177 92 -10 177 34 228 115 22 36 23 47 28
310 l5 274 205 -219 c458 -487 446 -478 575 -478 119 0 181 38 226 139 25 57
22 131 -6 187 -10 19 -106 124 -214 234 -108 110 -245 251 -306 313 l-110 112
297 298 c198 198 302 309 313 334 45 109 -17 246 -131 294 -48 20 -141 17
-192 -6 -46 -21 -99 -74 -439 -437 -115 -122 -211 -222 -215 -222 -4 -1 -8
120 -10 268 l-3 269 -30 44 c-58 83 -199 124 -290 84z"/>
</g>
</svg>
