<svg xmlns="http://www.w3.org/2000/svg" width="1024" height="1024" viewBox="0 0 1024 1024">
  <path d="M 330 395 L 329 396 L 328 396 L 327 396 L 326 396 L 325 396 L 324 396 L 323 396 L 322 396 L 321 397 L 320 397 L 319 397 L 318 397 L 317 397 L 316 397 L 315 397 L 314 398 L 313 398 L 312 398 L 311 398 L 310 399 L 309 399 L 308 399 L 307 399 L 306 400 L 305 400 L 304 400 L 303 401 L 302 401 L 301 401 L 300 401 L 299 402 L 298 402 L 297 403 L 296 403 L 295 403 L 294 404 L 293 404 L 292 405 L 291 405 L 290 405 L 289 406 L 288 406 L 287 407 L 286 407 L 285 408 L 284 408 L 283 409 L 282 409 L 281 410 L 280 411 L 279 411 L 278 412 L 277 412 L 276 413 L 275 414 L 274 414 L 273 415 L 272 416 L 271 416 L 270 417 L 269 418 L 268 419 L 267 420 L 266 421 L 265 421 L 264 422 L 263 423 L 262 424 L 261 425 L 260 426 L 259 427 L 258 428 L 257 429 L 256 430 L 255 431 L 254 432 L 254 433 L 253 434 L 252 435 L 251 436 L 250 437 L 250 438 L 249 439 L 248 440 L 248 441 L 247 442 L 246 443 L 246 444 L 245 445 L 245 446 L 244 447 L 244 448 L 243 449 L 243 450 L 242 451 L 242 452 L 241 453 L 241 454 L 240 455 L 240 456 L 240 457 L 239 458 L 239 459 L 239 460 L 238 461 L 238 462 L 238 463 L 237 464 L 237 465 L 237 466 L 237 467 L 236 468 L 236 469 L 236 470 L 235 471 L 235 472 L 235 473 L 235 474 L 235 475 L 235 476 L 235 477 L 234 478 L 234 479 L 234 480 L 234 481 L 234 482 L 234 483 L 234 484 L 233 485 L 233 486 L 233 487 L 233 488 L 233 489 L 233 490 L 233 491 L 232 492 L 232 493 L 232 494 L 232 495 L 232 496 L 232 497 L 232 498 L 232 499 L 232 500 L 231 501 L 231 502 L 231 503 L 231 504 L 231 505 L 231 506 L 231 507 L 230 508 L 230 509 L 230 510 L 230 511 L 230 512 L 230 513 L 230 514 L 230 515 L 229 516 L 229 517 L 229 518 L 229 519 L 229 520 L 229 521 L 229 522 L 229 523 L 228 524 L 228 525 L 228 526 L 228 527 L 228 528 L 228 529 L 228 530 L 228 531 L 227 532 L 227 533 L 227 534 L 227 535 L 227 536 L 227 537 L 227 538 L 226 539 L 226 540 L 226 541 L 226 542 L 226 543 L 226 544 L 226 545 L 226 546 L 225 547 L 225 548 L 225 549 L 225 550 L 225 551 L 225 552 L 225 553 L 225 554 L 225 555 L 224 556 L 224 557 L 224 558 L 224 559 L 224 560 L 224 561 L 224 562 L 224 563 L 223 564 L 223 565 L 223 566 L 223 567 L 223 568 L 223 569 L 223 570 L 222 571 L 222 572 L 222 573 L 222 574 L 222 575 L 222 576 L 222 577 L 222 578 L 222 579 L 221 580 L 221 581 L 221 582 L 221 583 L 221 584 L 221 585 L 221 586 L 221 587 L 221 588 L 221 589 L 221 590 L 221 591 L 220 592 L 220 593 L 220 594 L 220 595 L 220 596 L 220 597 L 220 598 L 220 599 L 220 600 L 220 601 L 220 602 L 220 603 L 220 604 L 220 605 L 221 606 L 221 607 L 221 608 L 221 609 L 221 610 L 221 611 L 221 612 L 221 613 L 221 614 L 222 615 L 222 616 L 222 617 L 222 618 L 223 619 L 223 620 L 223 621 L 223 622 L 224 623 L 224 624 L 224 625 L 225 626 L 225 627 L 225 628 L 226 629 L 226 630 L 226 631 L 227 632 L 227 633 L 228 634 L 228 635 L 229 636 L 229 637 L 230 638 L 230 639 L 231 640 L 232 641 L 232 642 L 233 643 L 233 644 L 234 645 L 235 646 L 236 647 L 236 648 L 237 649 L 238 650 L 239 651 L 240 652 L 240 653 L 241 654 L 242 655 L 243 656 L 244 657 L 245 658 L 246 659 L 247 660 L 248 661 L 249 661 L 250 662 L 251 663 L 252 664 L 253 664 L 254 665 L 255 666 L 256 666 L 257 667 L 258 668 L 259 668 L 260 669 L 261 669 L 262 670 L 263 671 L 264 671 L 265 672 L 266 672 L 267 673 L 268 673 L 269 674 L 270 674 L 271 675 L 272 675 L 273 675 L 274 676 L 275 676 L 276 677 L 277 677 L 278 677 L 279 678 L 280 678 L 281 678 L 282 679 L 283 679 L 284 679 L 285 680 L 286 680 L 287 680 L 288 680 L 289 681 L 290 681 L 291 681 L 292 681 L 293 682 L 294 682 L 295 682 L 296 682 L 297 682 L 298 683 L 299 683 L 300 683 L 301 683 L 302 683 L 303 683 L 304 683 L 305 684 L 306 684 L 307 684 L 308 684 L 309 684 L 310 684 L 311 684 L 312 684 L 313 684 L 314 684 L 315 684 L 316 684 L 317 684 L 318 684 L 319 684 L 320 684 L 321 684 L 322 684 L 323 685 L 324 685 L 325 685 L 326 684 L 327 684 L 328 684 L 329 685 L 330 685 L 331 685 L 332 685 L 333 685 L 334 685 L 335 685 L 336 684 L 337 684 L 338 684 L 339 684 L 340 684 L 341 684 L 342 684 L 343 684 L 344 684 L 345 684 L 346 684 L 347 684 L 348 684 L 349 684 L 350 684 L 351 684 L 352 684 L 353 684 L 354 684 L 355 684 L 356 684 L 357 684 L 358 684 L 359 684 L 360 684 L 361 684 L 362 684 L 363 684 L 364 684 L 365 684 L 366 684 L 367 684 L 368 684 L 369 684 L 370 684 L 371 684 L 372 684 L 373 684 L 374 684 L 375 684 L 376 684 L 377 684 L 378 684 L 379 684 L 380 684 L 381 684 L 382 684 L 383 684 L 384 684 L 385 684 L 386 684 L 387 684 L 388 684 L 389 684 L 390 684 L 391 684 L 392 684 L 393 684 L 394 684 L 395 684 L 396 684 L 397 684 L 398 684 L 399 684 L 400 684 L 401 684 L 402 684 L 403 683 L 404 683 L 405 683 L 406 683 L 407 683 L 408 684 L 409 683 L 410 683 L 411 683 L 412 683 L 413 683 L 414 683 L 415 683 L 416 683 L 417 683 L 418 683 L 419 683 L 420 683 L 421 683 L 422 683 L 423 683 L 424 683 L 425 683 L 426 683 L 427 683 L 428 683 L 429 683 L 430 683 L 431 683 L 432 683 L 433 683 L 434 683 L 435 683 L 435 682 L 434 681 L 433 680 L 432 679 L 431 678 L 430 677 L 429 676 L 428 675 L 427 674 L 427 673 L 426 672 L 425 671 L 424 670 L 424 669 L 423 668 L 422 667 L 422 666 L 421 665 L 420 664 L 419 663 L 419 662 L 418 661 L 417 660 L 417 659 L 416 658 L 416 657 L 415 656 L 414 655 L 414 654 L 414 653 L 413 652 L 413 651 L 412 650 L 412 649 L 411 648 L 411 647 L 410 646 L 410 645 L 409 644 L 409 643 L 409 642 L 408 641 L 408 640 L 407 639 L 407 638 L 407 637 L 407 636 L 406 635 L 406 634 L 406 633 L 405 632 L 405 631 L 405 630 L 405 629 L 404 628 L 404 627 L 404 626 L 404 625 L 404 624 L 403 623 L 403 622 L 403 621 L 403 620 L 403 619 L 403 618 L 403 617 L 402 616 L 402 615 L 402 614 L 402 613 L 402 612 L 402 611 L 402 610 L 402 609 L 402 608 L 402 607 L 402 606 L 402 605 L 402 604 L 402 603 L 402 602 L 401 601 L 401 600 L 400 600 L 399 600 L 398 600 L 397 600 L 396 600 L 395 600 L 394 600 L 393 600 L 392 600 L 391 600 L 390 600 L 389 600 L 388 600 L 387 600 L 386 600 L 385 600 L 384 600 L 383 600 L 382 600 L 381 600 L 380 600 L 379 600 L 378 600 L 377 600 L 376 600 L 375 600 L 374 600 L 373 600 L 372 600 L 371 600 L 370 600 L 369 600 L 368 600 L 367 600 L 366 600 L 365 600 L 364 600 L 363 600 L 362 600 L 361 600 L 360 600 L 359 600 L 358 600 L 357 600 L 356 600 L 355 600 L 354 600 L 353 600 L 352 600 L 351 600 L 350 600 L 349 600 L 348 600 L 347 600 L 346 600 L 345 600 L 344 600 L 343 600 L 342 600 L 341 600 L 340 600 L 339 600 L 338 600 L 337 600 L 336 600 L 335 600 L 334 600 L 333 599 L 332 599 L 331 598 L 330 597 L 329 596 L 328 595 L 327 594 L 326 593 L 325 592 L 324 591 L 323 590 L 322 589 L 321 588 L 320 587 L 319 586 L 318 585 L 317 584 L 316 583 L 315 582 L 314 581 L 313 580 L 312 579 L 311 578 L 310 577 L 310 576 L 309 575 L 309 574 L 310 573 L 310 572 L 310 571 L 310 570 L 310 569 L 310 568 L 310 567 L 310 566 L 310 565 L 311 564 L 311 563 L 311 562 L 311 561 L 311 560 L 311 559 L 311 558 L 311 557 L 312 556 L 312 555 L 312 554 L 312 553 L 312 552 L 312 551 L 312 550 L 312 549 L 313 548 L 313 547 L 313 546 L 313 545 L 313 544 L 313 543 L 313 542 L 313 541 L 313 540 L 314 539 L 314 538 L 314 537 L 314 536 L 314 535 L 314 534 L 314 533 L 315 532 L 315 531 L 315 530 L 315 529 L 315 528 L 315 527 L 315 526 L 315 525 L 316 524 L 316 523 L 316 522 L 316 521 L 316 520 L 316 519 L 316 518 L 316 517 L 317 516 L 317 515 L 317 514 L 317 513 L 317 512 L 317 511 L 317 510 L 317 509 L 318 508 L 318 507 L 318 506 L 318 505 L 318 504 L 318 503 L 318 502 L 318 501 L 319 500 L 319 499 L 319 498 L 319 497 L 319 496 L 319 495 L 319 494 L 319 493 L 320 492 L 320 491 L 320 490 L 320 489 L 320 488 L 320 487 L 321 486 L 321 485 L 321 484 L 321 483 L 322 482 L 323 481 L 323 480 L 324 479 L 325 478 L 326 477 L 327 476 L 328 475 L 329 474 L 330 473 L 331 473 L 332 472 L 333 472 L 334 471 L 335 471 L 336 471 L 337 471 L 338 470 L 339 470 L 340 470 L 341 470 L 342 470 L 343 470 L 344 470 L 345 470 L 346 470 L 347 470 L 348 470 L 349 470 L 350 470 L 351 470 L 352 470 L 353 470 L 354 470 L 355 470 L 356 470 L 357 470 L 358 470 L 359 470 L 360 470 L 361 470 L 362 470 L 363 470 L 364 470 L 365 470 L 366 470 L 367 470 L 368 470 L 369 470 L 370 470 L 371 470 L 372 470 L 373 470 L 374 470 L 375 470 L 376 470 L 377 470 L 378 470 L 379 470 L 380 470 L 381 470 L 382 470 L 383 470 L 384 470 L 385 470 L 386 470 L 387 470 L 388 470 L 389 470 L 390 470 L 391 470 L 392 470 L 393 470 L 394 470 L 395 470 L 396 470 L 397 470 L 398 470 L 399 470 L 400 470 L 401 470 L 402 470 L 403 470 L 404 470 L 405 470 L 406 470 L 407 470 L 408 470 L 409 470 L 410 470 L 411 470 L 412 470 L 413 470 L 414 470 L 415 470 L 416 470 L 417 470 L 418 470 L 419 470 L 420 470 L 421 470 L 422 470 L 423 470 L 424 470 L 425 470 L 426 470 L 427 470 L 428 470 L 429 470 L 430 470 L 431 470 L 432 470 L 433 470 L 434 470 L 435 470 L 436 470 L 437 470 L 438 470 L 439 470 L 440 470 L 441 470 L 442 470 L 443 470 L 444 470 L 445 470 L 446 470 L 447 470 L 448 470 L 449 470 L 450 470 L 451 470 L 452 470 L 453 470 L 454 470 L 455 470 L 456 470 L 457 470 L 458 470 L 459 470 L 460 470 L 461 470 L 462 470 L 463 470 L 464 470 L 465 470 L 466 470 L 467 470 L 468 470 L 469 470 L 470 470 L 471 470 L 472 470 L 473 470 L 474 470 L 475 470 L 476 470 L 477 470 L 478 470 L 479 470 L 480 470 L 481 470 L 482 470 L 483 470 L 484 470 L 485 470 L 486 470 L 487 470 L 488 470 L 489 470 L 490 470 L 491 470 L 492 470 L 493 470 L 494 470 L 495 470 L 496 470 L 497 470 L 498 470 L 499 470 L 500 470 L 501 470 L 502 470 L 503 470 L 504 470 L 505 470 L 506 470 L 507 470 L 508 470 L 509 470 L 510 470 L 511 470 L 512 470 L 513 470 L 514 470 L 515 470 L 516 470 L 517 470 L 518 470 L 519 470 L 520 470 L 521 470 L 522 470 L 523 470 L 524 470 L 525 470 L 526 470 L 527 470 L 528 470 L 529 470 L 530 470 L 531 470 L 532 470 L 533 470 L 534 470 L 535 469 L 536 469 L 537 469 L 538 469 L 539 468 L 540 468 L 541 467 L 542 467 L 543 467 L 544 466 L 545 466 L 546 465 L 547 465 L 548 464 L 549 464 L 550 463 L 551 463 L 552 462 L 553 462 L 554 461 L 555 461 L 556 460 L 557 460 L 558 459 L 559 459 L 560 458 L 561 458 L 562 457 L 563 457 L 564 456 L 565 456 L 566 455 L 567 455 L 568 454 L 569 454 L 570 453 L 571 453 L 572 452 L 573 452 L 574 451 L 575 451 L 576 450 L 577 450 L 578 449 L 579 449 L 580 448 L 581 448 L 582 447 L 583 447 L 584 446 L 585 446 L 586 445 L 587 445 L 588 444 L 589 444 L 590 443 L 591 443 L 592 442 L 593 441 L 594 441 L 595 440 L 595 439 L 595 438 L 595 437 L 596 436 L 596 435 L 596 434 L 596 433 L 596 432 L 596 431 L 597 430 L 597 429 L 597 428 L 597 427 L 597 426 L 597 425 L 597 424 L 598 423 L 598 422 L 598 421 L 598 420 L 598 419 L 598 418 L 598 417 L 599 416 L 599 415 L 599 414 L 599 413 L 599 412 L 599 411 L 599 410 L 599 409 L 600 408 L 600 407 L 600 406 L 600 405 L 600 404 L 600 403 L 600 402 L 601 401 L 601 400 L 601 399 L 601 398 L 601 397 L 602 396 L 601 395 L 600 395 L 599 395 L 598 395 L 597 395 L 596 395 L 595 395 L 594 395 L 593 395 L 592 395 L 591 395 L 590 395 L 589 395 L 588 395 L 587 395 L 586 395 L 585 395 L 584 395 L 583 395 L 582 395 L 581 395 L 580 395 L 579 395 L 578 395 L 577 395 L 576 395 L 575 395 L 574 395 L 573 395 L 572 395 L 571 395 L 570 395 L 569 395 L 568 395 L 567 395 L 566 395 L 565 395 L 564 395 L 563 395 L 562 395 L 561 395 L 560 395 L 559 395 L 558 395 L 557 395 L 556 395 L 555 395 L 554 395 L 553 395 L 552 395 L 551 395 L 550 395 L 549 395 L 548 395 L 547 395 L 546 395 L 545 395 L 544 395 L 543 395 L 542 395 L 541 395 L 540 395 L 539 395 L 538 395 L 537 395 L 536 395 L 535 395 L 534 395 L 533 395 L 532 395 L 531 395 L 530 395 L 529 395 L 528 395 L 527 395 L 526 395 L 525 395 L 524 395 L 523 395 L 522 395 L 521 395 L 520 395 L 519 395 L 518 395 L 517 395 L 516 395 L 515 395 L 514 395 L 513 395 L 512 395 L 511 395 L 510 395 L 509 395 L 508 395 L 507 395 L 506 395 L 505 395 L 504 395 L 503 395 L 502 395 L 501 395 L 500 395 L 499 395 L 498 395 L 497 395 L 496 395 L 495 395 L 494 395 L 493 395 L 492 395 L 491 395 L 490 395 L 489 395 L 488 395 L 487 395 L 486 395 L 485 395 L 484 395 L 483 395 L 482 395 L 481 395 L 480 395 L 479 395 L 478 395 L 477 395 L 476 395 L 475 395 L 474 395 L 473 395 L 472 395 L 471 395 L 470 395 L 469 395 L 468 395 L 467 395 L 466 395 L 465 395 L 464 395 L 463 395 L 462 395 L 461 395 L 460 395 L 459 395 L 458 395 L 457 395 L 456 395 L 455 395 L 454 395 L 453 395 L 452 395 L 451 395 L 450 395 L 449 395 L 448 395 L 447 395 L 446 395 L 445 395 L 444 395 L 443 395 L 442 395 L 441 395 L 440 395 L 439 395 L 438 395 L 437 395 L 436 395 L 435 395 L 434 395 L 433 395 L 432 395 L 431 395 L 430 395 L 429 395 L 428 395 L 427 395 L 426 395 L 425 395 L 424 395 L 423 395 L 422 395 L 421 395 L 420 395 L 419 395 L 418 395 L 417 395 L 416 395 L 415 395 L 414 395 L 413 395 L 412 395 L 411 395 L 410 395 L 409 395 L 408 395 L 407 395 L 406 395 L 405 395 L 404 395 L 403 395 L 402 395 L 401 395 L 400 395 L 399 395 L 398 395 L 397 395 L 396 395 L 395 395 L 394 395 L 393 395 L 392 395 L 391 395 L 390 395 L 389 395 L 388 395 L 387 395 L 386 395 L 385 395 L 384 395 L 383 395 L 382 395 L 381 395 L 380 395 L 379 395 L 378 395 L 377 395 L 376 395 L 375 395 L 374 395 L 373 395 L 372 395 L 371 395 L 370 395 L 369 395 L 368 395 L 367 395 L 366 395 L 365 395 L 364 395 L 363 395 L 362 395 L 361 395 L 360 395 L 359 395 L 358 395 L 357 395 L 356 395 L 355 395 L 354 395 L 353 395 L 352 395 L 351 395 L 350 395 L 349 395 L 348 395 L 347 395 L 346 395 L 345 395 L 344 395 L 343 395 L 342 395 L 341 395 L 340 395 L 339 395 L 338 395 L 337 395 L 336 395 L 335 395 L 334 395 L 333 395 L 332 395 L 331 395 Z" fill="#FFFFFF"/>
  <path d="M 737 273 L 736 274 L 735 274 L 734 274 L 733 275 L 732 276 L 731 276 L 730 277 L 729 278 L 728 278 L 727 279 L 726 280 L 725 281 L 724 281 L 723 282 L 722 283 L 721 284 L 720 284 L 719 285 L 718 286 L 717 287 L 716 287 L 715 288 L 714 289 L 713 290 L 712 290 L 711 291 L 710 292 L 709 293 L 708 293 L 707 294 L 706 295 L 705 296 L 704 296 L 703 297 L 702 298 L 701 298 L 700 299 L 699 300 L 698 301 L 697 301 L 696 302 L 695 303 L 694 304 L 693 304 L 692 305 L 691 306 L 690 306 L 689 307 L 688 308 L 687 309 L 686 309 L 685 310 L 684 311 L 683 312 L 682 312 L 681 313 L 680 314 L 679 315 L 678 315 L 677 316 L 676 317 L 675 318 L 674 318 L 673 319 L 672 320 L 671 320 L 670 321 L 669 322 L 668 323 L 667 323 L 666 324 L 665 325 L 664 326 L 663 326 L 662 327 L 661 328 L 660 329 L 659 329 L 658 330 L 657 331 L 656 332 L 655 332 L 654 333 L 653 334 L 652 335 L 651 335 L 650 336 L 649 337 L 648 337 L 647 338 L 646 339 L 645 340 L 644 341 L 643 341 L 642 342 L 641 343 L 640 344 L 639 344 L 638 345 L 637 346 L 636 346 L 635 347 L 634 348 L 633 349 L 632 349 L 631 350 L 630 351 L 629 352 L 628 352 L 627 353 L 626 354 L 625 355 L 624 355 L 623 356 L 622 357 L 621 358 L 620 358 L 619 359 L 618 360 L 617 361 L 616 361 L 615 362 L 614 363 L 613 364 L 612 364 L 611 365 L 610 366 L 609 367 L 608 367 L 607 368 L 606 369 L 605 369 L 604 370 L 603 371 L 602 372 L 601 372 L 600 373 L 599 374 L 598 375 L 597 375 L 596 376 L 595 377 L 594 378 L 593 378 L 592 379 L 591 380 L 590 381 L 589 381 L 588 382 L 587 383 L 586 384 L 585 384 L 584 385 L 583 386 L 582 387 L 581 387 L 580 388 L 579 389 L 578 390 L 577 390 L 576 391 L 576 392 L 577 392 L 578 392 L 579 392 L 580 392 L 581 392 L 582 392 L 583 392 L 584 392 L 585 392 L 586 392 L 587 392 L 588 392 L 589 392 L 590 392 L 591 392 L 592 392 L 593 392 L 594 392 L 595 392 L 596 392 L 597 392 L 598 392 L 599 392 L 600 392 L 601 392 L 602 392 L 603 392 L 604 392 L 605 392 L 606 392 L 607 393 L 608 393 L 609 393 L 610 393 L 611 393 L 612 393 L 613 393 L 614 393 L 615 393 L 616 393 L 617 393 L 618 393 L 619 393 L 620 393 L 621 393 L 622 393 L 623 393 L 624 393 L 625 393 L 626 392 L 627 393 L 627 394 L 627 395 L 627 396 L 627 397 L 627 398 L 626 399 L 626 400 L 626 401 L 626 402 L 626 403 L 626 404 L 626 405 L 625 406 L 625 407 L 625 408 L 625 409 L 625 410 L 625 411 L 625 412 L 625 413 L 624 414 L 624 415 L 624 416 L 624 417 L 624 418 L 624 419 L 624 420 L 623 421 L 623 422 L 623 423 L 623 424 L 623 425 L 623 426 L 623 427 L 622 428 L 622 429 L 622 430 L 622 431 L 622 432 L 622 433 L 622 434 L 622 435 L 621 436 L 621 437 L 621 438 L 621 439 L 621 440 L 621 441 L 621 442 L 620 443 L 620 444 L 620 445 L 620 446 L 620 447 L 620 448 L 620 449 L 619 450 L 619 451 L 619 452 L 619 453 L 619 454 L 619 455 L 619 456 L 619 457 L 618 458 L 618 459 L 618 460 L 618 461 L 618 462 L 618 463 L 618 464 L 618 465 L 617 466 L 617 467 L 617 468 L 617 469 L 617 470 L 617 471 L 617 472 L 617 473 L 616 474 L 616 475 L 616 476 L 616 477 L 616 478 L 616 479 L 616 480 L 616 481 L 615 482 L 615 483 L 615 484 L 615 485 L 615 486 L 615 487 L 615 488 L 615 489 L 614 490 L 614 491 L 614 492 L 614 493 L 614 494 L 614 495 L 614 496 L 613 497 L 613 498 L 613 499 L 613 500 L 613 501 L 613 502 L 613 503 L 613 504 L 612 505 L 612 506 L 612 507 L 612 508 L 612 509 L 612 510 L 612 511 L 611 512 L 611 513 L 611 514 L 611 515 L 611 516 L 611 517 L 611 518 L 610 519 L 610 520 L 610 521 L 610 522 L 610 523 L 610 524 L 610 525 L 610 526 L 609 527 L 609 528 L 609 529 L 609 530 L 609 531 L 609 532 L 609 533 L 609 534 L 608 535 L 608 536 L 608 537 L 608 538 L 608 539 L 608 540 L 608 541 L 608 542 L 607 543 L 607 544 L 607 545 L 607 546 L 607 547 L 607 548 L 607 549 L 606 550 L 606 551 L 606 552 L 606 553 L 606 554 L 606 555 L 606 556 L 606 557 L 605 558 L 605 559 L 605 560 L 605 561 L 605 562 L 605 563 L 605 564 L 605 565 L 604 566 L 604 567 L 604 568 L 604 569 L 604 570 L 604 571 L 603 572 L 603 573 L 603 574 L 603 575 L 603 576 L 603 577 L 603 578 L 603 579 L 602 580 L 602 581 L 602 582 L 602 583 L 602 584 L 602 585 L 602 586 L 602 587 L 602 588 L 601 589 L 601 590 L 601 591 L 601 592 L 601 593 L 601 594 L 601 595 L 600 596 L 600 597 L 600 598 L 600 599 L 600 600 L 600 601 L 600 602 L 600 603 L 599 604 L 599 605 L 599 606 L 599 607 L 599 608 L 599 609 L 599 610 L 598 611 L 598 612 L 597 613 L 596 613 L 595 613 L 594 612 L 593 612 L 592 612 L 591 612 L 590 612 L 589 612 L 588 612 L 587 611 L 586 611 L 585 611 L 584 611 L 583 610 L 582 610 L 581 610 L 580 609 L 579 609 L 578 608 L 577 608 L 576 607 L 575 607 L 574 606 L 573 605 L 572 604 L 571 603 L 570 602 L 569 601 L 568 600 L 567 599 L 567 598 L 566 597 L 566 596 L 566 595 L 565 594 L 565 593 L 565 592 L 565 591 L 565 590 L 564 589 L 564 588 L 564 587 L 564 586 L 564 585 L 564 584 L 564 583 L 565 582 L 565 581 L 565 580 L 565 579 L 565 578 L 565 577 L 565 576 L 565 575 L 566 574 L 566 573 L 566 572 L 566 571 L 566 570 L 566 569 L 566 568 L 567 567 L 567 566 L 567 565 L 567 564 L 567 563 L 567 562 L 567 561 L 567 560 L 568 559 L 568 558 L 568 557 L 568 556 L 568 555 L 568 554 L 568 553 L 569 552 L 569 551 L 569 550 L 569 549 L 569 548 L 569 547 L 569 546 L 570 545 L 570 544 L 570 543 L 570 542 L 570 541 L 570 540 L 570 539 L 570 538 L 571 537 L 571 536 L 571 535 L 571 534 L 571 533 L 571 532 L 571 531 L 571 530 L 572 529 L 572 528 L 572 527 L 572 526 L 572 525 L 572 524 L 572 523 L 573 522 L 573 521 L 573 520 L 573 519 L 573 518 L 573 517 L 573 516 L 573 515 L 574 514 L 573 513 L 573 512 L 573 511 L 572 510 L 571 509 L 570 509 L 569 509 L 568 509 L 567 509 L 566 508 L 565 508 L 564 508 L 563 508 L 562 508 L 561 508 L 560 508 L 559 508 L 558 508 L 557 508 L 556 508 L 555 508 L 554 508 L 553 508 L 552 508 L 551 508 L 550 508 L 549 508 L 548 508 L 547 508 L 546 508 L 545 508 L 544 508 L 543 508 L 542 508 L 541 508 L 540 508 L 539 508 L 538 508 L 537 508 L 536 508 L 535 508 L 534 508 L 533 508 L 532 508 L 531 508 L 530 508 L 529 508 L 528 508 L 527 508 L 526 508 L 525 508 L 524 508 L 523 508 L 522 508 L 521 508 L 520 508 L 519 508 L 518 508 L 517 508 L 516 508 L 515 508 L 514 508 L 513 508 L 512 508 L 511 508 L 510 508 L 509 508 L 508 508 L 507 508 L 506 508 L 505 508 L 504 508 L 503 508 L 502 508 L 501 508 L 500 508 L 499 508 L 498 508 L 497 508 L 496 508 L 495 508 L 494 508 L 493 508 L 492 508 L 491 508 L 490 508 L 489 508 L 488 508 L 487 508 L 486 508 L 485 508 L 484 508 L 483 508 L 482 508 L 481 508 L 480 508 L 479 508 L 478 508 L 477 508 L 476 508 L 475 508 L 474 508 L 473 508 L 472 508 L 471 508 L 470 508 L 469 508 L 468 508 L 467 508 L 466 508 L 465 508 L 464 508 L 463 508 L 462 508 L 461 508 L 460 508 L 459 508 L 458 508 L 457 508 L 456 508 L 455 508 L 454 508 L 453 508 L 452 508 L 451 508 L 450 508 L 449 508 L 448 508 L 447 508 L 446 508 L 445 508 L 444 508 L 443 508 L 442 508 L 441 508 L 440 508 L 439 508 L 438 508 L 437 508 L 436 508 L 435 508 L 434 508 L 433 508 L 432 508 L 431 508 L 430 508 L 429 508 L 428 508 L 427 508 L 426 508 L 425 508 L 424 508 L 423 508 L 422 508 L 421 508 L 420 508 L 419 508 L 418 508 L 417 508 L 416 508 L 415 508 L 414 508 L 413 508 L 412 508 L 411 508 L 410 508 L 409 508 L 408 508 L 407 508 L 406 508 L 405 508 L 404 508 L 403 508 L 402 508 L 401 508 L 400 508 L 399 508 L 398 508 L 397 508 L 396 508 L 395 508 L 394 508 L 393 508 L 392 508 L 391 508 L 390 509 L 389 509 L 388 509 L 387 509 L 386 510 L 385 510 L 384 511 L 383 512 L 383 513 L 383 514 L 382 515 L 382 516 L 382 517 L 382 518 L 382 519 L 382 520 L 382 521 L 382 522 L 381 523 L 381 524 L 381 525 L 381 526 L 381 527 L 381 528 L 381 529 L 380 530 L 380 531 L 380 532 L 380 533 L 380 534 L 380 535 L 380 536 L 379 537 L 379 538 L 379 539 L 379 540 L 379 541 L 379 542 L 379 543 L 379 544 L 378 545 L 378 546 L 378 547 L 378 548 L 378 549 L 378 550 L 378 551 L 377 552 L 377 553 L 377 554 L 377 555 L 377 556 L 377 557 L 376 558 L 376 559 L 376 560 L 376 561 L 376 562 L 376 563 L 375 564 L 375 565 L 375 566 L 375 567 L 375 568 L 375 569 L 375 570 L 375 571 L 375 572 L 375 573 L 375 574 L 375 575 L 376 576 L 377 577 L 378 577 L 379 577 L 380 577 L 381 577 L 382 577 L 383 577 L 384 577 L 385 577 L 386 577 L 387 577 L 388 577 L 389 577 L 390 577 L 391 577 L 392 577 L 393 577 L 394 577 L 395 577 L 396 577 L 397 577 L 398 577 L 399 577 L 400 577 L 401 577 L 402 577 L 403 577 L 404 577 L 405 577 L 406 577 L 407 577 L 408 577 L 409 577 L 410 577 L 411 577 L 412 577 L 413 577 L 414 577 L 415 577 L 416 577 L 417 577 L 418 577 L 419 578 L 419 579 L 419 580 L 419 581 L 419 582 L 419 583 L 419 584 L 418 585 L 418 586 L 418 587 L 418 588 L 418 589 L 418 590 L 418 591 L 418 592 L 418 593 L 418 594 L 418 595 L 418 596 L 418 597 L 418 598 L 417 599 L 417 600 L 417 601 L 417 602 L 417 603 L 417 604 L 418 605 L 418 606 L 418 607 L 418 608 L 418 609 L 418 610 L 418 611 L 418 612 L 418 613 L 418 614 L 418 615 L 418 616 L 419 617 L 419 618 L 419 619 L 419 620 L 419 621 L 419 622 L 420 623 L 420 624 L 420 625 L 420 626 L 421 627 L 421 628 L 421 629 L 421 630 L 422 631 L 422 632 L 422 633 L 423 634 L 423 635 L 424 636 L 424 637 L 424 638 L 425 639 L 425 640 L 426 641 L 426 642 L 426 643 L 427 644 L 427 645 L 428 646 L 429 647 L 429 648 L 430 649 L 430 650 L 431 651 L 431 652 L 432 653 L 433 654 L 434 655 L 434 656 L 435 657 L 436 658 L 437 659 L 437 660 L 438 661 L 439 662 L 440 663 L 441 664 L 442 665 L 443 666 L 444 667 L 445 668 L 446 669 L 447 669 L 448 670 L 449 671 L 450 672 L 451 673 L 452 673 L 453 674 L 454 675 L 455 675 L 456 676 L 457 677 L 458 677 L 459 678 L 460 678 L 461 679 L 462 679 L 463 680 L 464 680 L 465 681 L 466 681 L 467 682 L 468 682 L 469 683 L 470 683 L 471 684 L 472 684 L 473 684 L 474 685 L 475 685 L 476 686 L 477 686 L 478 686 L 479 687 L 480 687 L 481 687 L 482 688 L 483 688 L 484 688 L 485 688 L 486 689 L 487 689 L 488 689 L 489 689 L 490 690 L 491 690 L 492 690 L 493 690 L 494 691 L 495 691 L 496 691 L 497 691 L 498 691 L 499 692 L 500 692 L 501 692 L 502 692 L 503 692 L 504 692 L 505 693 L 506 693 L 507 693 L 508 693 L 509 693 L 510 694 L 511 694 L 512 694 L 513 694 L 514 694 L 515 694 L 516 694 L 517 694 L 518 695 L 519 695 L 520 695 L 521 695 L 522 695 L 523 695 L 524 695 L 525 695 L 526 695 L 527 695 L 528 695 L 529 695 L 530 696 L 531 696 L 532 696 L 533 696 L 534 696 L 535 696 L 536 696 L 537 696 L 538 696 L 539 696 L 540 696 L 541 696 L 542 696 L 543 696 L 544 696 L 545 696 L 546 696 L 547 696 L 548 696 L 549 696 L 550 696 L 551 696 L 552 696 L 553 696 L 554 696 L 555 696 L 556 696 L 557 696 L 558 696 L 559 696 L 560 696 L 561 696 L 562 696 L 563 696 L 564 696 L 565 696 L 566 696 L 567 696 L 568 696 L 569 696 L 570 696 L 571 696 L 572 696 L 573 696 L 574 696 L 575 696 L 576 696 L 577 696 L 578 696 L 579 696 L 580 696 L 581 696 L 582 695 L 583 695 L 584 695 L 585 695 L 586 695 L 587 695 L 588 695 L 589 695 L 590 695 L 591 695 L 592 695 L 593 695 L 594 695 L 595 695 L 596 694 L 597 694 L 598 694 L 599 694 L 600 694 L 601 694 L 602 694 L 603 694 L 604 694 L 605 694 L 606 693 L 607 693 L 608 693 L 609 693 L 610 693 L 611 693 L 612 693 L 613 692 L 614 692 L 615 692 L 616 692 L 617 692 L 618 692 L 619 692 L 620 692 L 621 691 L 622 691 L 623 691 L 624 691 L 625 691 L 626 691 L 627 690 L 628 690 L 629 690 L 630 690 L 631 690 L 632 689 L 633 689 L 634 689 L 635 689 L 636 689 L 637 688 L 638 688 L 639 688 L 640 688 L 641 688 L 642 687 L 643 687 L 644 687 L 645 687 L 646 686 L 647 686 L 648 686 L 649 686 L 650 685 L 651 685 L 652 685 L 653 685 L 654 684 L 655 684 L 656 684 L 657 684 L 658 683 L 659 683 L 660 683 L 661 682 L 662 682 L 663 682 L 664 681 L 665 681 L 666 681 L 667 680 L 668 680 L 669 680 L 670 679 L 671 679 L 672 679 L 673 678 L 674 678 L 675 678 L 676 677 L 677 677 L 678 676 L 679 676 L 680 676 L 681 675 L 682 675 L 683 674 L 684 674 L 685 673 L 686 673 L 687 672 L 688 672 L 689 671 L 690 671 L 691 670 L 692 670 L 693 669 L 694 669 L 695 668 L 696 667 L 697 667 L 698 666 L 699 666 L 700 665 L 701 664 L 702 664 L 703 663 L 704 662 L 705 662 L 706 661 L 707 660 L 708 659 L 709 659 L 710 658 L 711 657 L 712 656 L 713 655 L 714 655 L 715 654 L 716 653 L 717 652 L 718 651 L 719 650 L 720 649 L 721 648 L 722 647 L 723 646 L 723 645 L 724 644 L 725 643 L 726 642 L 727 641 L 728 640 L 729 639 L 729 638 L 730 637 L 731 636 L 732 635 L 732 634 L 733 633 L 734 632 L 734 631 L 735 630 L 736 629 L 736 628 L 737 627 L 737 626 L 738 625 L 738 624 L 739 623 L 740 622 L 740 621 L 741 620 L 741 619 L 742 618 L 742 617 L 742 616 L 743 615 L 743 614 L 744 613 L 744 612 L 744 611 L 745 610 L 745 609 L 745 608 L 746 607 L 746 606 L 746 605 L 747 604 L 747 603 L 747 602 L 748 601 L 748 600 L 748 599 L 748 598 L 749 597 L 749 596 L 749 595 L 749 594 L 750 593 L 750 592 L 750 591 L 750 590 L 750 589 L 751 588 L 751 587 L 751 586 L 751 585 L 751 584 L 751 583 L 751 582 L 751 581 L 752 580 L 752 579 L 752 578 L 752 577 L 752 576 L 752 575 L 752 574 L 752 573 L 753 572 L 753 571 L 753 570 L 753 569 L 753 568 L 753 567 L 753 566 L 753 565 L 754 564 L 754 563 L 754 562 L 754 561 L 754 560 L 754 559 L 754 558 L 755 557 L 755 556 L 755 555 L 755 554 L 755 553 L 755 552 L 755 551 L 755 550 L 756 549 L 756 548 L 756 547 L 756 546 L 756 545 L 756 544 L 756 543 L 756 542 L 757 541 L 757 540 L 757 539 L 757 538 L 757 537 L 757 536 L 757 535 L 758 534 L 758 533 L 758 532 L 758 531 L 758 530 L 758 529 L 758 528 L 758 527 L 759 526 L 759 525 L 759 524 L 759 523 L 759 522 L 759 521 L 759 520 L 759 519 L 760 518 L 760 517 L 760 516 L 760 515 L 760 514 L 760 513 L 760 512 L 760 511 L 761 510 L 761 509 L 761 508 L 761 507 L 761 506 L 761 505 L 761 504 L 761 503 L 762 502 L 762 501 L 762 500 L 762 499 L 762 498 L 762 497 L 762 496 L 762 495 L 763 494 L 763 493 L 763 492 L 763 491 L 763 490 L 763 489 L 763 488 L 763 487 L 764 486 L 764 485 L 764 484 L 764 483 L 764 482 L 764 481 L 764 480 L 765 479 L 765 478 L 765 477 L 765 476 L 765 475 L 765 474 L 765 473 L 765 472 L 766 471 L 766 470 L 766 469 L 766 468 L 766 467 L 766 466 L 766 465 L 767 464 L 767 463 L 767 462 L 767 461 L 767 460 L 767 459 L 767 458 L 767 457 L 767 456 L 768 455 L 768 454 L 768 453 L 768 452 L 768 451 L 768 450 L 768 449 L 769 448 L 769 447 L 769 446 L 769 445 L 769 444 L 769 443 L 769 442 L 770 441 L 770 440 L 770 439 L 770 438 L 770 437 L 770 436 L 770 435 L 770 434 L 771 433 L 771 432 L 771 431 L 771 430 L 771 429 L 771 428 L 771 427 L 771 426 L 772 425 L 772 424 L 772 423 L 772 422 L 772 421 L 772 420 L 772 419 L 772 418 L 773 417 L 773 416 L 773 415 L 773 414 L 773 413 L 773 412 L 773 411 L 774 410 L 774 409 L 774 408 L 774 407 L 774 406 L 774 405 L 774 404 L 774 403 L 775 402 L 775 401 L 775 400 L 775 399 L 775 398 L 775 397 L 775 396 L 775 395 L 776 394 L 777 393 L 778 393 L 779 393 L 780 393 L 781 393 L 782 393 L 783 394 L 784 393 L 785 393 L 786 393 L 787 393 L 788 393 L 789 393 L 790 393 L 791 393 L 792 393 L 793 393 L 794 393 L 795 393 L 796 393 L 797 393 L 798 393 L 799 393 L 800 393 L 801 393 L 802 393 L 803 393 L 804 393 L 805 393 L 806 393 L 807 393 L 808 393 L 809 393 L 810 393 L 811 393 L 812 393 L 813 393 L 814 393 L 815 393 L 816 393 L 817 393 L 818 393 L 819 393 L 820 393 L 821 393 L 822 393 L 823 393 L 824 393 L 825 393 L 826 393 L 827 393 L 828 392 L 829 392 L 829 391 L 830 390 L 830 389 L 829 388 L 829 387 L 828 386 L 828 385 L 827 384 L 826 383 L 826 382 L 825 381 L 824 380 L 823 379 L 822 378 L 822 377 L 821 376 L 820 375 L 819 374 L 819 373 L 818 372 L 817 371 L 816 370 L 816 369 L 815 368 L 814 367 L 813 366 L 813 365 L 812 364 L 811 363 L 810 362 L 809 361 L 809 360 L 808 359 L 807 358 L 806 357 L 806 356 L 805 355 L 804 354 L 803 353 L 803 352 L 802 351 L 801 350 L 800 349 L 800 348 L 799 347 L 798 346 L 797 345 L 797 344 L 796 343 L 795 342 L 794 341 L 793 340 L 793 339 L 792 338 L 791 337 L 790 336 L 790 335 L 789 334 L 788 333 L 787 332 L 787 331 L 786 330 L 785 329 L 784 328 L 784 327 L 783 326 L 782 325 L 781 324 L 780 323 L 780 322 L 779 321 L 778 320 L 777 319 L 777 318 L 776 317 L 775 316 L 774 315 L 774 314 L 773 313 L 772 312 L 771 311 L 770 310 L 770 309 L 769 308 L 768 307 L 767 306 L 767 305 L 766 304 L 765 303 L 764 302 L 764 301 L 763 300 L 762 299 L 761 298 L 761 297 L 760 296 L 759 295 L 758 294 L 758 293 L 757 292 L 756 291 L 755 290 L 754 289 L 754 288 L 753 287 L 752 286 L 751 285 L 751 284 L 750 283 L 749 282 L 748 281 L 748 280 L 747 279 L 746 278 L 745 277 L 744 276 L 743 275 L 742 274 L 741 274 L 740 273 L 739 273 L 738 273 Z" fill="#FFFFFF"/>
  <path d="M 790 373 L 768 342 L 705 400 L 744 389 Z" fill="#24DFCF"/>
</svg>