<?xml version="1.0" encoding="UTF-8"?>
<svg xmlns="http://www.w3.org/2000/svg" width="521" height="618" viewBox="0 0 521 618" fill="none">
  <path d="M 260 0 L 260 2 L 259 3 L 259 5 L 258 6 L 258 7 L 257 8 L 257 10 L 256 11 L 256 13 L 255 14 L 255 15 L 254 16 L 254 18 L 253 19 L 253 20 L 252 21 L 252 23 L 251 24 L 251 25 L 250 26 L 250 28 L 249 29 L 249 30 L 248 31 L 248 33 L 247 34 L 247 35 L 246 36 L 246 37 L 245 38 L 245 39 L 244 40 L 244 41 L 243 42 L 243 43 L 242 44 L 242 45 L 241 46 L 241 47 L 240 48 L 240 49 L 239 50 L 239 51 L 238 52 L 238 53 L 237 54 L 237 55 L 236 56 L 236 57 L 235 58 L 235 59 L 234 60 L 234 61 L 233 62 L 233 63 L 232 64 L 232 65 L 231 66 L 231 67 L 229 69 L 229 70 L 228 71 L 228 72 L 227 73 L 227 74 L 225 76 L 225 77 L 224 78 L 224 79 L 223 80 L 223 81 L 221 83 L 221 84 L 220 85 L 220 86 L 218 88 L 218 89 L 216 91 L 216 92 L 214 94 L 214 95 L 212 97 L 212 98 L 210 100 L 210 101 L 208 103 L 208 104 L 206 106 L 206 107 L 203 110 L 203 111 L 201 113 L 201 114 L 198 117 L 198 118 L 194 122 L 194 123 L 190 127 L 190 128 L 185 133 L 185 134 L 180 139 L 180 140 L 181 140 L 182 139 L 183 139 L 184 138 L 185 138 L 186 137 L 188 137 L 189 136 L 190 136 L 191 135 L 192 135 L 193 134 L 195 134 L 196 133 L 197 133 L 198 132 L 200 132 L 201 131 L 202 131 L 203 130 L 205 130 L 206 129 L 207 129 L 208 128 L 210 128 L 211 127 L 212 127 L 213 126 L 214 126 L 216 128 L 216 328 L 215 329 L 215 330 L 214 331 L 214 332 L 213 333 L 213 334 L 212 335 L 212 336 L 211 337 L 211 338 L 210 339 L 210 340 L 209 341 L 209 343 L 207 345 L 207 346 L 206 347 L 206 349 L 205 350 L 205 351 L 204 352 L 204 353 L 203 354 L 203 355 L 202 356 L 202 357 L 201 358 L 201 359 L 200 360 L 200 361 L 199 362 L 199 363 L 198 364 L 198 365 L 197 366 L 197 367 L 196 368 L 196 369 L 195 370 L 195 371 L 194 372 L 194 373 L 193 374 L 193 375 L 192 376 L 192 377 L 191 378 L 191 379 L 190 380 L 190 381 L 189 382 L 189 383 L 188 384 L 188 385 L 187 386 L 187 388 L 186 389 L 185 389 L 170 374 L 169 374 L 117 322 L 117 176 L 118 175 L 119 176 L 121 176 L 122 177 L 124 177 L 125 178 L 127 178 L 128 179 L 130 179 L 131 180 L 132 180 L 133 181 L 135 181 L 136 182 L 137 182 L 138 183 L 140 183 L 141 184 L 143 184 L 144 185 L 145 185 L 146 186 L 35 75 L 34 75 L 33 74 L 33 73 L 32 73 L 0 41 L 1 42 L 1 43 L 2 44 L 2 45 L 3 46 L 3 47 L 4 48 L 4 49 L 5 50 L 5 51 L 6 52 L 6 53 L 7 54 L 7 56 L 8 57 L 8 58 L 9 59 L 9 60 L 10 61 L 10 63 L 11 64 L 11 65 L 12 66 L 12 68 L 13 69 L 13 71 L 14 72 L 14 74 L 15 75 L 15 77 L 16 78 L 16 80 L 17 81 L 17 83 L 18 84 L 18 86 L 19 87 L 19 90 L 20 91 L 20 94 L 21 95 L 21 98 L 22 99 L 22 102 L 23 103 L 23 107 L 24 108 L 24 113 L 25 114 L 25 120 L 26 121 L 26 129 L 27 130 L 27 359 L 32 364 L 32 365 L 52 385 L 53 385 L 74 406 L 74 407 L 106 439 L 107 439 L 108 440 L 108 441 L 109 441 L 112 444 L 112 445 L 113 445 L 122 454 L 122 455 L 215 548 L 215 549 L 216 550 L 216 551 L 218 553 L 218 554 L 220 556 L 220 557 L 222 559 L 222 560 L 224 562 L 224 563 L 225 564 L 225 565 L 227 567 L 227 568 L 229 570 L 229 571 L 231 573 L 231 574 L 233 576 L 233 577 L 235 579 L 235 580 L 238 583 L 238 584 L 240 586 L 240 587 L 242 589 L 242 590 L 244 592 L 244 593 L 246 595 L 246 596 L 248 598 L 248 599 L 250 601 L 250 602 L 252 604 L 252 605 L 254 607 L 254 608 L 256 610 L 256 611 L 258 613 L 258 614 L 260 616 L 260 617 L 261 616 L 261 615 L 263 613 L 263 612 L 265 610 L 265 609 L 267 607 L 267 606 L 269 604 L 269 603 L 271 601 L 271 600 L 273 598 L 273 597 L 275 595 L 275 594 L 277 592 L 277 591 L 279 589 L 279 588 L 281 586 L 281 585 L 283 583 L 283 582 L 284 581 L 284 580 L 286 578 L 286 577 L 288 575 L 288 574 L 290 572 L 290 571 L 292 569 L 292 568 L 294 566 L 294 565 L 296 563 L 296 562 L 298 560 L 298 559 L 300 557 L 300 556 L 302 554 L 302 553 L 304 551 L 304 550 L 306 548 L 306 547 L 344 509 L 344 508 L 353 499 L 354 499 L 391 462 L 391 461 L 413 439 L 414 439 L 436 417 L 436 416 L 463 389 L 464 389 L 487 366 L 487 365 L 493 359 L 493 128 L 494 127 L 494 119 L 495 118 L 495 113 L 496 112 L 496 107 L 497 106 L 497 103 L 498 102 L 498 98 L 499 97 L 499 94 L 500 93 L 500 91 L 501 90 L 501 87 L 502 86 L 502 84 L 503 83 L 503 80 L 504 79 L 504 78 L 505 77 L 505 75 L 506 74 L 506 72 L 507 71 L 507 69 L 508 68 L 508 67 L 509 66 L 509 64 L 510 63 L 510 62 L 511 61 L 511 59 L 512 58 L 512 57 L 513 56 L 513 55 L 514 54 L 514 52 L 515 51 L 515 50 L 516 49 L 516 48 L 517 47 L 517 46 L 518 45 L 518 44 L 519 43 L 519 42 L 520 41 L 518 43 L 517 43 L 504 56 L 504 57 L 494 67 L 493 67 L 493 68 L 492 69 L 491 69 L 487 73 L 487 74 L 486 75 L 485 75 L 375 185 L 376 185 L 377 184 L 379 184 L 380 183 L 382 183 L 383 182 L 384 182 L 385 181 L 387 181 L 388 180 L 390 180 L 391 179 L 393 179 L 394 178 L 395 178 L 396 177 L 398 177 L 399 176 L 401 176 L 402 175 L 404 177 L 404 321 L 349 376 L 348 376 L 338 386 L 338 387 L 336 389 L 335 389 L 333 387 L 333 386 L 332 385 L 332 384 L 331 383 L 331 382 L 330 381 L 330 380 L 329 379 L 329 378 L 328 377 L 328 376 L 327 375 L 327 374 L 326 373 L 326 371 L 325 370 L 325 369 L 324 368 L 324 367 L 323 366 L 323 365 L 322 364 L 322 363 L 321 362 L 321 361 L 320 360 L 320 359 L 319 358 L 319 357 L 318 356 L 318 355 L 317 354 L 317 353 L 316 352 L 316 351 L 315 350 L 315 349 L 314 348 L 314 347 L 313 346 L 313 345 L 312 344 L 312 343 L 311 342 L 311 341 L 310 340 L 310 339 L 309 338 L 309 337 L 308 336 L 308 335 L 307 334 L 307 333 L 306 332 L 306 331 L 305 330 L 305 127 L 306 126 L 307 126 L 308 127 L 309 127 L 310 128 L 312 128 L 313 129 L 314 129 L 315 130 L 317 130 L 318 131 L 319 131 L 320 132 L 322 132 L 323 133 L 324 133 L 325 134 L 327 134 L 328 135 L 329 135 L 330 136 L 331 136 L 332 137 L 334 137 L 335 138 L 336 138 L 337 139 L 339 139 L 340 140 L 340 139 L 335 134 L 335 133 L 331 129 L 331 128 L 327 124 L 327 123 L 324 120 L 324 119 L 321 116 L 321 115 L 318 112 L 318 111 L 315 108 L 315 107 L 313 105 L 313 104 L 310 101 L 310 100 L 308 98 L 308 97 L 306 95 L 306 94 L 304 92 L 304 91 L 303 90 L 303 89 L 301 87 L 301 86 L 299 84 L 299 83 L 297 81 L 297 80 L 296 79 L 296 78 L 294 76 L 294 75 L 293 74 L 293 73 L 292 72 L 292 71 L 291 70 L 291 69 L 289 67 L 289 66 L 288 65 L 288 64 L 287 63 L 287 62 L 286 61 L 286 60 L 285 59 L 285 58 L 284 57 L 284 56 L 283 55 L 283 54 L 282 53 L 282 52 L 281 51 L 281 50 L 280 49 L 280 48 L 279 47 L 279 46 L 278 45 L 278 44 L 277 43 L 277 41 L 276 40 L 276 39 L 275 38 L 275 37 L 274 36 L 274 35 L 273 34 L 273 33 L 272 32 L 272 30 L 271 29 L 271 28 L 270 27 L 270 26 L 269 25 L 269 23 L 268 22 L 268 21 L 267 20 L 267 18 L 266 17 L 266 16 L 265 15 L 265 13 L 264 12 L 264 11 L 263 10 L 263 8 L 262 7 L 262 5 L 261 4 L 261 2 L 260 1 Z M 259 428 L 260 427 L 262 429 L 262 430 L 263 431 L 263 433 L 264 434 L 264 436 L 265 437 L 265 439 L 266 440 L 266 442 L 267 443 L 267 445 L 268 446 L 268 448 L 269 449 L 269 450 L 270 451 L 270 453 L 271 454 L 271 456 L 272 457 L 272 459 L 273 460 L 273 462 L 274 463 L 274 465 L 275 466 L 275 467 L 276 468 L 276 470 L 277 471 L 277 473 L 278 474 L 278 476 L 279 477 L 279 478 L 280 479 L 280 481 L 281 482 L 281 484 L 282 485 L 282 487 L 283 488 L 283 489 L 284 490 L 284 492 L 285 493 L 285 494 L 286 495 L 286 497 L 287 498 L 287 500 L 288 501 L 288 502 L 289 503 L 289 505 L 290 506 L 290 507 L 291 508 L 291 510 L 292 511 L 292 513 L 293 514 L 293 515 L 294 516 L 294 518 L 295 519 L 295 521 L 296 522 L 296 523 L 297 524 L 297 526 L 298 527 L 298 529 L 299 530 L 299 531 L 300 532 L 300 534 L 301 535 L 301 537 L 299 539 L 299 540 L 297 542 L 297 543 L 295 545 L 295 546 L 293 548 L 293 549 L 291 551 L 291 552 L 289 554 L 289 555 L 287 557 L 287 558 L 285 560 L 285 561 L 283 563 L 283 564 L 280 567 L 280 568 L 278 570 L 278 571 L 276 573 L 276 574 L 275 575 L 275 576 L 273 578 L 273 579 L 271 581 L 271 582 L 269 584 L 269 585 L 268 586 L 268 587 L 266 589 L 266 590 L 264 592 L 264 593 L 262 595 L 262 596 L 261 597 L 260 597 L 259 596 Z" fill="#000000" fill-rule="evenodd" clip-rule="evenodd"/>
</svg>
